<mxfile host="app.diagrams.net" agent="Mozilla/5.0 (Macintosh; Intel Mac OS X 10_15_7) AppleWebKit/537.36 (KHTML, like Gecko) Chrome/139.0.0.0 Safari/537.36" version="28.1.1">
  <diagram name="Page-1" id="nqFcutp17oMhdJVzcwGx">
    <mxGraphModel dx="1171" dy="1018" grid="1" gridSize="10" guides="1" tooltips="1" connect="1" arrows="1" fold="1" page="1" pageScale="1" pageWidth="850" pageHeight="1100" math="0" shadow="0">
      <root>
        <mxCell id="0" />
        <mxCell id="1" parent="0" />
        <mxCell id="Axl9RRjqqiV5W9XVU0st-2" value="VPC" style="points=[[0,0],[0.25,0],[0.5,0],[0.75,0],[1,0],[1,0.25],[1,0.5],[1,0.75],[1,1],[0.75,1],[0.5,1],[0.25,1],[0,1],[0,0.75],[0,0.5],[0,0.25]];outlineConnect=0;gradientColor=none;html=1;whiteSpace=wrap;fontSize=12;fontStyle=0;container=1;pointerEvents=0;collapsible=0;recursiveResize=0;shape=mxgraph.aws4.group;grIcon=mxgraph.aws4.group_vpc2;strokeColor=#8C4FFF;fillColor=none;verticalAlign=top;align=left;spacingLeft=30;fontColor=#AAB7B8;dashed=0;" vertex="1" parent="1">
          <mxGeometry x="80" y="90" width="710" height="510" as="geometry" />
        </mxCell>
        <mxCell id="Axl9RRjqqiV5W9XVU0st-4" value="" style="sketch=0;points=[[0,0,0],[0.25,0,0],[0.5,0,0],[0.75,0,0],[1,0,0],[0,1,0],[0.25,1,0],[0.5,1,0],[0.75,1,0],[1,1,0],[0,0.25,0],[0,0.5,0],[0,0.75,0],[1,0.25,0],[1,0.5,0],[1,0.75,0]];outlineConnect=0;fontColor=#232F3E;fillColor=#ED7100;strokeColor=#ffffff;dashed=0;verticalLabelPosition=bottom;verticalAlign=top;align=center;html=1;fontSize=12;fontStyle=0;aspect=fixed;shape=mxgraph.aws4.resourceIcon;resIcon=mxgraph.aws4.eks;" vertex="1" parent="Axl9RRjqqiV5W9XVU0st-2">
          <mxGeometry x="300" y="30" width="78" height="78" as="geometry" />
        </mxCell>
        <mxCell id="Axl9RRjqqiV5W9XVU0st-5" value="Troubleshooting Service" style="container=1;collapsible=0;expand=0;recursiveResize=0;html=1;whiteSpace=wrap;strokeColor=#A56EFF;fillColor=none;" vertex="1" parent="Axl9RRjqqiV5W9XVU0st-2">
          <mxGeometry x="30" y="170" width="230" height="110" as="geometry" />
        </mxCell>
        <mxCell id="Axl9RRjqqiV5W9XVU0st-6" value="Expanded Microservice" style="shape=rect;fillColor=#A56EFF;aspect=fixed;resizable=0;labelPosition=right;verticalLabelPosition=middle;align=left;verticalAlign=middle;strokeColor=none;part=1;spacingLeft=5;fontSize=14;" vertex="1" parent="Axl9RRjqqiV5W9XVU0st-5">
          <mxGeometry width="48" height="48" relative="1" as="geometry" />
        </mxCell>
        <mxCell id="Axl9RRjqqiV5W9XVU0st-7" value="" style="fillColor=#ffffff;shape=mxgraph.ibm_cloud.microservices--1;strokeColor=none;dashed=0;outlineConnect=0;html=1;labelPosition=center;verticalLabelPosition=bottom;verticalAlign=top;part=1;movable=0;resizable=0;rotatable=0;" vertex="1" parent="Axl9RRjqqiV5W9XVU0st-6">
          <mxGeometry width="24" height="24" relative="1" as="geometry">
            <mxPoint x="12" y="12" as="offset" />
          </mxGeometry>
        </mxCell>
        <mxCell id="Axl9RRjqqiV5W9XVU0st-8" value="" style="endArrow=none;html=1;rounded=0;exitX=1;exitY=0;exitDx=0;exitDy=0;entryX=0;entryY=1;entryDx=0;entryDy=0;entryPerimeter=0;" edge="1" parent="Axl9RRjqqiV5W9XVU0st-2" source="Axl9RRjqqiV5W9XVU0st-5" target="Axl9RRjqqiV5W9XVU0st-4">
          <mxGeometry width="50" height="50" relative="1" as="geometry">
            <mxPoint x="440" y="240" as="sourcePoint" />
            <mxPoint x="490" y="190" as="targetPoint" />
          </mxGeometry>
        </mxCell>
        <mxCell id="Axl9RRjqqiV5W9XVU0st-9" value="Cost Insight Service" style="container=1;collapsible=0;expand=0;recursiveResize=0;html=1;whiteSpace=wrap;strokeColor=#A56EFF;fillColor=none;rotation=0;" vertex="1" parent="Axl9RRjqqiV5W9XVU0st-2">
          <mxGeometry x="450" y="170" width="230" height="110" as="geometry" />
        </mxCell>
        <mxCell id="Axl9RRjqqiV5W9XVU0st-10" value="Expanded Microservice" style="shape=rect;fillColor=#A56EFF;aspect=fixed;resizable=0;labelPosition=right;verticalLabelPosition=middle;align=left;verticalAlign=middle;strokeColor=none;part=1;spacingLeft=5;fontSize=14;rotation=0;" vertex="1" parent="Axl9RRjqqiV5W9XVU0st-9">
          <mxGeometry width="48" height="48" relative="1" as="geometry" />
        </mxCell>
        <mxCell id="Axl9RRjqqiV5W9XVU0st-11" value="" style="fillColor=#ffffff;shape=mxgraph.ibm_cloud.microservices--1;strokeColor=none;dashed=0;outlineConnect=0;html=1;labelPosition=center;verticalLabelPosition=bottom;verticalAlign=top;part=1;movable=0;resizable=0;rotatable=0;" vertex="1" parent="Axl9RRjqqiV5W9XVU0st-10">
          <mxGeometry width="24" height="24" relative="1" as="geometry">
            <mxPoint x="12" y="12" as="offset" />
          </mxGeometry>
        </mxCell>
        <mxCell id="Axl9RRjqqiV5W9XVU0st-15" value="" style="endArrow=none;html=1;rounded=0;exitX=1;exitY=1;exitDx=0;exitDy=0;exitPerimeter=0;entryX=0;entryY=0;entryDx=0;entryDy=0;" edge="1" parent="Axl9RRjqqiV5W9XVU0st-2" source="Axl9RRjqqiV5W9XVU0st-4" target="Axl9RRjqqiV5W9XVU0st-10">
          <mxGeometry width="50" height="50" relative="1" as="geometry">
            <mxPoint x="200" y="370" as="sourcePoint" />
            <mxPoint x="250" y="320" as="targetPoint" />
          </mxGeometry>
        </mxCell>
        <mxCell id="Axl9RRjqqiV5W9XVU0st-16" value="API Gateway" style="container=1;collapsible=0;expand=0;recursiveResize=0;html=1;whiteSpace=wrap;strokeColor=#A56EFF;fillColor=none;opacity=60;" vertex="1" parent="Axl9RRjqqiV5W9XVU0st-2">
          <mxGeometry x="230" y="330" width="230" height="110" as="geometry" />
        </mxCell>
        <mxCell id="Axl9RRjqqiV5W9XVU0st-17" value="Expanded Microservice" style="shape=rect;fillColor=#A56EFF;aspect=fixed;resizable=0;labelPosition=right;verticalLabelPosition=middle;align=left;verticalAlign=middle;strokeColor=none;part=1;spacingLeft=5;fontSize=14;" vertex="1" parent="Axl9RRjqqiV5W9XVU0st-16">
          <mxGeometry width="48" height="48" relative="1" as="geometry" />
        </mxCell>
        <mxCell id="Axl9RRjqqiV5W9XVU0st-18" value="" style="fillColor=#ffffff;shape=mxgraph.ibm_cloud.microservices--1;strokeColor=none;dashed=0;outlineConnect=0;html=1;labelPosition=center;verticalLabelPosition=bottom;verticalAlign=top;part=1;movable=0;resizable=0;rotatable=0;" vertex="1" parent="Axl9RRjqqiV5W9XVU0st-17">
          <mxGeometry width="24" height="24" relative="1" as="geometry">
            <mxPoint x="12" y="12" as="offset" />
          </mxGeometry>
        </mxCell>
        <mxCell id="Axl9RRjqqiV5W9XVU0st-27" value="" style="endArrow=none;html=1;rounded=0;exitX=0.548;exitY=0.009;exitDx=0;exitDy=0;exitPerimeter=0;" edge="1" parent="Axl9RRjqqiV5W9XVU0st-2" source="Axl9RRjqqiV5W9XVU0st-16" target="Axl9RRjqqiV5W9XVU0st-4">
          <mxGeometry width="50" height="50" relative="1" as="geometry">
            <mxPoint x="200" y="370" as="sourcePoint" />
            <mxPoint x="250" y="320" as="targetPoint" />
          </mxGeometry>
        </mxCell>
      </root>
    </mxGraphModel>
  </diagram>
</mxfile>
